PathFileType	4	(X/Y/Z)	C:\Users\86182\Documents\cortex\Trimmed_M4_L16.trc
DataRate	CameraRate	NumFrames	NumMarkers	Units	OrigDataRate	OrigDataStartFrame	OrigNumFrames
100.00	100.00	       84	2	mm	100.00	361	       901
Frame#	Time	gripper			box			
		X1	Y1	Z1	X2	Y2	Z2	

361	3.600	274.58472	150.43629	292.47964	276.97592	147.42397	157.24570	
362	3.610	274.58072	150.43568	292.47479	276.97482	147.42326	157.24591	
363	3.620	274.57489	150.43451	292.46802	276.97232	147.42216	157.24631	
364	3.630	274.56741	150.43274	292.45966	276.96915	147.42093	157.24677	
365	3.640	274.55908	150.43057	292.45074	276.96603	147.41974	157.24722	
366	3.650	274.55182	150.42867	292.44278	276.96362	147.41873	157.24756	
367	3.660	274.54813	150.42801	292.43729	276.96262	147.41795	157.24765	
368	3.670	274.54962	150.42921	292.43515	276.96378	147.41719	157.24734	
369	3.680	274.55621	150.43225	292.43646	276.96756	147.41605	157.24649	
370	3.690	274.56625	150.43643	292.44052	276.97400	147.41420	157.24500	
371	3.700	274.57721	150.44077	292.44608	276.98251	147.41158	157.24300	
372	3.710	274.58679	150.44440	292.45175	276.99219	147.40843	157.24069	
373	3.720	274.59378	150.44695	292.45630	277.00177	147.40517	157.23834	
374	3.730	274.59802	150.44855	292.45877	277.01001	147.40225	157.23631	
375	3.740	274.59985	150.44945	292.45892	277.01602	147.40010	157.23483	
376	3.750	274.59976	150.44977	292.45718	277.01929	147.39891	157.23401	
377	3.760	274.59845	150.44969	292.45444	277.01999	147.39867	157.23386	
378	3.770	274.59702	150.44952	292.45178	277.01862	147.39919	157.23419	
379	3.780	274.59650	150.44960	292.45016	277.01596	147.40019	157.23486	
380	3.790	274.59720	150.44998	292.45004	277.01279	147.40141	157.23566	
381	3.800	274.59888	150.45055	292.45135	277.00977	147.40256	157.23642	
382	3.810	274.60086	150.45105	292.45367	277.00732	147.40349	157.23703	
383	3.820	274.60245	150.45132	292.45627	277.00574	147.40410	157.23743	
384	3.830	274.60330	150.45131	292.45837	277.00488	147.40442	157.23764	
385	3.840	274.60324	150.45103	292.45953	277.00430	147.40463	157.23778	
386	3.850	274.60229	150.45056	292.45947	277.00351	147.40494	157.23798	
387	3.860	274.60062	150.44997	292.45831	277.00238	147.40540	157.23827	
388	3.870	274.59854	150.44930	292.45654	277.00113	147.40588	157.23859	
389	3.880	274.59650	150.44862	292.45490	277.00040	147.40616	157.23875	
390	3.890	274.59491	150.44801	292.45404	277.00089	147.40598	157.23865	
391	3.900	274.59424	150.44757	292.45453	277.00278	147.40524	157.23816	
392	3.910	274.59448	150.44734	292.45627	277.00580	147.40405	157.23740	
393	3.920	274.59549	150.44728	292.45892	277.00949	147.40260	157.23648	
394	3.930	274.59686	150.44736	292.46182	277.01324	147.40114	157.23553	
395	3.940	274.59833	150.44754	292.46432	277.01636	147.39992	157.23474	
396	3.950	274.59958	150.44783	292.46576	277.01825	147.39919	157.23425	
397	3.960	274.60062	150.44827	292.46573	277.01862	147.39905	157.23416	
398	3.970	274.60123	150.44878	292.46423	277.01752	147.39948	157.23444	
399	3.980	274.60114	150.44911	292.46170	277.01535	147.40033	157.23499	
400	3.990	274.60010	150.44901	292.45880	277.01251	147.40143	157.23570	
401	4.000	274.59814	150.44839	292.45630	277.00946	147.40263	157.23648	
402	4.010	274.59576	150.44740	292.45483	277.00662	147.40373	157.23718	
403	4.020	274.59332	150.44626	292.45493	277.00452	147.40457	157.23773	
404	4.030	274.59119	150.44521	292.45676	277.00320	147.40508	157.23804	
405	4.040	274.58917	150.44438	292.46008	277.00244	147.40536	157.23824	
406	4.050	274.58670	150.44386	292.46423	277.00180	147.40561	157.23840	
407	4.060	274.58331	150.44373	292.46820	277.00098	147.40594	157.23862	
408	4.070	274.57898	150.44406	292.47137	277.00003	147.40631	157.23886	
409	4.080	274.57422	150.44499	292.47330	276.99963	147.40646	157.23895	
410	4.090	274.57016	150.44640	292.47382	277.00064	147.40607	157.23871	
411	4.100	274.56842	150.44806	292.47275	277.00330	147.40503	157.23804	
412	4.110	274.57043	150.44971	292.47009	277.00696	147.40359	157.23712	
413	4.120	274.57626	150.45126	292.46652	277.01086	147.40208	157.23613	
414	4.130	274.58450	150.45274	292.46310	277.01440	147.40070	157.23523	
415	4.140	274.59320	150.45409	292.46069	277.01724	147.39958	157.23453	
416	4.150	274.60074	150.45515	292.45935	277.01895	147.39891	157.23407	
417	4.160	274.60638	150.45581	292.45886	277.01935	147.39876	157.23398	
418	4.170	274.60986	150.45601	292.45880	277.01822	147.39920	157.23425	
419	4.180	274.61124	150.45564	292.45892	277.01550	147.40025	157.23495	
420	4.190	274.61057	150.45465	292.45920	277.01135	147.40189	157.23599	
421	4.200	274.60800	150.45299	292.45966	277.00638	147.40382	157.23724	
422	4.210	274.60397	150.45076	292.46021	277.00150	147.40573	157.23846	
423	4.220	274.59906	150.44818	292.46085	276.99756	147.40727	157.23947	
424	4.230	274.59384	150.44547	292.46158	276.99506	147.40825	157.24011	
425	4.240	274.58884	150.44289	292.46234	276.99423	147.40857	157.24030	
426	4.250	274.58490	150.44086	292.46301	276.99509	147.40823	157.24008	
427	4.260	274.58286	150.43983	292.46329	276.99741	147.40733	157.23950	
428	4.270	274.58325	150.44017	292.46298	277.00089	147.40598	157.23862	
429	4.280	274.58594	150.44176	292.46198	277.00519	147.40430	157.23755	
430	4.290	274.58978	150.44408	292.46033	277.00992	147.40244	157.23636	
431	4.300	274.59338	150.44637	292.45813	277.01450	147.40067	157.23523	
432	4.310	274.59570	150.44804	292.45569	277.01837	147.39914	157.23424	
433	4.320	274.59653	150.44894	292.45343	277.02148	147.39793	157.23346	
434	4.330	274.59631	150.44923	292.45163	277.02377	147.39703	157.23288	
435	4.340	274.59567	150.44910	292.45059	277.02518	147.39648	157.23251	
436	4.350	274.59488	150.44872	292.45056	277.02551	147.39635	157.23242	
437	4.360	274.59415	150.44812	292.45154	277.02460	147.39671	157.23267	
438	4.370	274.59329	150.44731	292.45340	277.02231	147.39760	157.23325	
439	4.380	274.59213	150.44624	292.45569	277.01859	147.39906	157.23419	
440	4.390	274.59058	150.44499	292.45782	277.01364	147.40099	157.23544	
441	4.400	274.58868	150.44376	292.45923	277.00800	147.40320	157.23685	
442	4.410	274.58676	150.44273	292.45941	277.00253	147.40532	157.23822	
443	4.420	274.58502	150.44208	292.45837	276.99823	147.40701	157.23932	
444	4.430	274.58374	150.44183	292.45642	276.99591	147.40793	157.23990	
